<svg id="Capa_1" enable-background="new 0 0 512 512" height="512" viewBox="0 0 512 512" width="512" xmlns="http://www.w3.org/2000/svg"><g><g><path d="m445.99 421.68c34.383-42.181 55.01-96.018 55.01-154.68 0-135.31-109.69-245-245-245s-245 109.69-245 245c0 58.662 20.627 112.499 55.01 154.68z" fill="#8f8ff9"/></g><g><path d="m446 20v401.68c-44.92 55.12-113.35 90.32-190 90.32s-145.08-35.2-190-90.32v-309.41l112.27-112.27h247.73c11.05 0 20 8.95 20 20z" fill="#e9efff"/></g><g><path d="m229.75 0h-51.48l-112.27 112.27v309.41c44.92 55.12 113.35 90.32 190 90.32s145.08-35.2 190-90.32h-66.25c-82.843 0-150-67.157-150-150z" fill="#d3dcfb"/></g><g><g><path d="m389.753 167.5c-2.08 0-4.15-.86-5.633-2.545l-42.007-47.728c-2.736-3.109-2.435-7.849.675-10.585 3.109-2.737 7.849-2.435 10.585.675l42.007 47.728c2.736 3.109 2.435 7.849-.675 10.585-1.425 1.254-3.192 1.87-4.952 1.87z" fill="#ff4155"/></g><g><path d="m357.257 167.5c-1.76 0-3.527-.616-4.952-1.87-3.109-2.736-3.411-7.476-.675-10.585l32.49-36.916c2.736-3.109 7.476-3.412 10.585-.675 3.109 2.736 3.411 7.476.675 10.585l-32.49 36.916c-1.483 1.684-3.553 2.545-5.633 2.545z" fill="#ff4155"/></g><g><path d="m321.625 167.5c-4.143 0-7.5-3.358-7.5-7.5v-100c0-4.142 3.357-7.5 7.5-7.5s7.5 3.358 7.5 7.5v100c0 4.142-3.357 7.5-7.5 7.5z" fill="#ff4155"/></g><g><path d="m349.645 119.592h-26.986c-4.143 0-7.5-3.358-7.5-7.5s3.357-7.5 7.5-7.5h26.986c10.227 0 18.546-8.32 18.546-18.546 0-10.227-8.319-18.546-18.546-18.546h-26.986c-4.143 0-7.5-3.358-7.5-7.5s3.357-7.5 7.5-7.5h26.986c18.497 0 33.546 15.049 33.546 33.546-.001 18.497-15.049 33.546-33.546 33.546z" fill="#ff4155"/></g></g><g><g><path d="m389.75 229.5h-160c-4.142 0-7.5-3.358-7.5-7.5s3.358-7.5 7.5-7.5h160c4.143 0 7.5 3.358 7.5 7.5s-3.357 7.5-7.5 7.5z" fill="#bec8f7"/></g><g><path d="m389.75 269.5h-160c-4.142 0-7.5-3.358-7.5-7.5s3.358-7.5 7.5-7.5h160c4.143 0 7.5 3.358 7.5 7.5s-3.357 7.5-7.5 7.5z" fill="#bec8f7"/></g><g><path d="m389.75 309.5h-260c-4.142 0-7.5-3.358-7.5-7.5s3.358-7.5 7.5-7.5h260c4.143 0 7.5 3.358 7.5 7.5s-3.357 7.5-7.5 7.5z" fill="#bec8f7"/></g><g><path d="m389.75 349.5h-260c-4.142 0-7.5-3.358-7.5-7.5s3.358-7.5 7.5-7.5h260c4.143 0 7.5 3.358 7.5 7.5s-3.357 7.5-7.5 7.5z" fill="#bec8f7"/></g><g><path d="m269.75 389.5h-140c-4.142 0-7.5-3.358-7.5-7.5s3.358-7.5 7.5-7.5h140c4.143 0 7.5 3.358 7.5 7.5s-3.357 7.5-7.5 7.5z" fill="#bec8f7"/></g></g><g><path d="m178.272 93.56v-93.56c-62.006 0-112.272 50.266-112.272 112.272h93.56c10.335 0 18.712-8.377 18.712-18.712z" fill="#e9efff"/></g><g><g><circle cx="159.75" cy="226" fill="#8ae1ff" r="40"/></g><g><path d="m159.75 226c0-14.803 8.047-27.718 20-34.635-5.885-3.406-12.712-5.365-20-5.365-22.091 0-40 17.909-40 40s17.909 40 40 40c7.288 0 14.115-1.959 20-5.365-11.953-6.917-20-19.832-20-34.635z" fill="#42c3fc"/></g><g><path d="m119.75 226c0 2.565.251 5.07.712 7.5h78.575c.461-2.43.712-4.935.712-7.5s-.251-5.07-.712-7.5h-78.575c-.461 2.43-.712 4.935-.712 7.5z" fill="#1aa9e8"/></g></g><g><g><path d="m304.278 457.035c-11.716-11.716-11.716-30.711 0-42.426l28.284-28.284c11.716-11.716 30.711-11.716 42.426 0 11.716 11.716 11.716 30.711 0 42.426l-28.284 28.284c-11.715 11.716-30.71 11.716-42.426 0z" fill="#8f8ff9"/></g><g><path d="m325.492 435.822 28.284-28.284c7.85-7.85 18.968-10.432 28.975-7.762-1.315-4.927-3.896-9.586-7.762-13.452-11.716-11.716-30.711-11.716-42.426 0l-28.284 28.284c-11.716 11.716-11.716 30.711 0 42.426 3.865 3.865 8.525 6.447 13.452 7.762-2.671-10.006-.09-21.123 7.761-28.974z" fill="#746bf9"/></g><g><path d="m332.134 391.68h15v60h-15z" fill="#5858f4" transform="matrix(.707 -.707 .707 .707 -198.696 363.665)"/></g></g></g></svg>